<?xml version="1.0" standalone="no"?>
<!DOCTYPE svg PUBLIC "-//W3C//DTD SVG 20010904//EN"
 "http://www.w3.org/TR/2001/REC-SVG-20010904/DTD/svg10.dtd">
<svg version="1.0" xmlns="http://www.w3.org/2000/svg"
 width="5120.000000pt" height="5120.000000pt" viewBox="0 0 5120.000000 5120.000000"
 preserveAspectRatio="xMidYMid meet">

<g transform="translate(0.000000,5120.000000) scale(0.100000,-0.100000)"
fill="#000000" stroke="none">
<path d="M7900 44794 c-415 -35 -739 -183 -1026 -469 -190 -190 -303 -370
-384 -614 -115 -347 -115 -675 0 -1022 46 -139 100 -249 188 -384 61 -95 490
-525 8366 -8402 l8301 -8303 -8301 -8302 c-7602 -7604 -8307 -8311 -8364
-8398 -242 -368 -329 -801 -244 -1219 23 -112 86 -296 137 -398 80 -157 161
-268 301 -408 256 -256 545 -402 901 -456 103 -16 347 -16 450 0 273 42 519
144 740 309 33 25 3789 3774 8347 8331 l8288 8286 8302 -8301 c7844 -7842
8309 -8304 8403 -8366 286 -187 564 -271 895 -271 440 0 812 154 1126 468 138
138 223 253 304 414 48 97 112 282 134 392 85 418 -2 851 -244 1219 -57 87
-762 794 -8364 8398 l-8301 8302 8301 8303 c7876 7877 8305 8307 8366 8402 88
135 142 245 188 384 115 347 115 675 0 1022 -131 394 -423 731 -798 917 -225
112 -452 165 -712 165 -331 0 -609 -84 -895 -271 -94 -62 -559 -524 -8402
-8366 l-8303 -8301 -8302 8301 c-7844 7842 -8309 8304 -8403 8366 -209 137
-411 217 -640 253 -97 15 -282 25 -355 19z"/>
</g>
</svg>
