<?xml version="1.0" standalone="no"?>
<!DOCTYPE svg PUBLIC "-//W3C//DTD SVG 20010904//EN"
 "http://www.w3.org/TR/2001/REC-SVG-20010904/DTD/svg10.dtd">
<svg version="1.0" xmlns="http://www.w3.org/2000/svg"
 width="900.000000pt" height="893.000000pt" viewBox="0 0 900.000000 893.000000"
 preserveAspectRatio="xMidYMid meet">

<g transform="translate(0.000000,893.000000) scale(0.100000,-0.100000)"
fill="#000000" stroke="none">
<path d="M4335 8923 c-561 -46 -1056 -239 -1485 -579 -131 -104 -383 -364
-485 -502 -296 -399 -467 -817 -546 -1332 -30 -192 -32 -580 -5 -765 69 -476
214 -867 459 -1235 190 -284 441 -543 717 -737 550 -386 1207 -545 1873 -453
174 25 276 48 452 106 308 102 583 251 835 456 57 46 109 87 116 92 23 18 421
-138 669 -262 244 -122 474 -266 685 -428 144 -111 453 -418 547 -544 228
-305 382 -639 433 -937 45 -260 45 -435 1 -618 -36 -147 -132 -356 -224 -488
-86 -123 -252 -232 -452 -295 -45 -15 -365 -17 -3453 -19 -3784 -4 -3450 -10
-3597 64 -165 82 -257 171 -333 321 -154 302 -203 551 -172 863 40 395 208
790 490 1151 89 115 352 376 485 481 127 101 333 243 453 311 45 26 82 51 82
56 0 4 -7 14 -17 21 -17 14 -147 159 -195 217 -21 25 -33 32 -48 27 -39 -12
-353 -227 -478 -328 -236 -189 -501 -465 -659 -687 -296 -416 -457 -868 -479
-1351 -8 -156 5 -292 42 -459 34 -151 79 -272 169 -456 58 -118 89 -168 144
-231 118 -136 316 -268 493 -329 168 -57 -55 -54 3596 -48 2113 3 3388 9 3440
15 296 35 634 235 788 464 148 220 243 447 301 715 21 101 24 405 4 535 -62
410 -194 752 -423 1095 -365 546 -958 1016 -1683 1333 -82 36 -184 78 -225 93
-41 14 -76 28 -78 29 -2 2 33 52 77 111 485 653 665 1484 500 2314 -72 364
-240 751 -461 1063 -424 598 -1053 1001 -1743 1116 -204 35 -444 48 -610 34z
m462 -388 c486 -63 937 -285 1306 -644 389 -379 637 -866 717 -1406 85 -584
-27 -1161 -324 -1658 -323 -542 -831 -928 -1430 -1087 -172 -46 -285 -61 -492
-67 -208 -6 -355 5 -519 39 -892 183 -1602 881 -1834 1803 -46 184 -65 357
-65 600 1 320 30 505 125 795 238 721 813 1304 1512 1531 139 45 311 85 422
97 134 15 452 14 582 -3z"/>
</g>
</svg>
